<?xml version="1.0" encoding="utf-8"?>
<svg version="1.1" xmlns:xlink="http://www.w3.org/1999/xlink" width="71px" height="71px" xmlns="http://www.w3.org/2000/svg">
  <g transform="matrix(1 0 0 1 -535 -150 )">
    <path d="M 570.5 151  C 589.82 151  605 166.18  605 185.5  C 605 204.82  589.82 220  570.5 220  C 551.18 220  536 204.82  536 185.5  C 536 166.18  551.18 151  570.5 151  Z " fill-rule="nonzero" fill="#ffffff" stroke="none" />
    <path d="M 570.5 151  C 589.82 151  605 166.18  605 185.5  C 605 204.82  589.82 220  570.5 220  C 551.18 220  536 204.82  536 185.5  C 536 166.18  551.18 151  570.5 151  Z " stroke-width="2" stroke="#9a9a9a" fill="none" />
  </g>
</svg>