<?xml version="1.0" encoding="utf-8"?>
<!-- Generator: Adobe Illustrator 19.2.1, SVG Export Plug-In . SVG Version: 6.00 Build 0)  -->
<svg version="1.1" id="Layer_1" xmlns="http://www.w3.org/2000/svg" xmlns:xlink="http://www.w3.org/1999/xlink" x="0px" y="0px"
	 viewBox="0 0 455 455" style="enable-background:new 0 0 455 455;" xml:space="preserve">
<style type="text/css">
	.st0{fill:#ECECEC;}
	.st1{fill:#333333;stroke:#000000;stroke-miterlimit:10;}
</style>
<rect class="st0" width="455" height="455"/>
<path class="st1" d="M181.3,242.6c-5.6-4.2-13.1-6.4-22.2-6.4h-46.4v53.4h45.5c4.2,0,8.2-0.4,12-1.2c3.8-0.8,7.2-2.2,10.1-4.1
	c2.9-1.9,5.2-4.5,6.9-7.7c1.7-3.2,2.6-7.5,2.6-12.6C189.7,254,186.9,246.9,181.3,242.6z"/>
<path class="st1" d="M174.6,201.7c4.9-3.6,7.3-9.5,7.3-17.6c0-4.5-0.8-8.2-2.4-11.1c-1.6-2.9-3.8-5.2-6.6-6.7
	c-2.7-1.6-5.8-2.8-9.4-3.4c-3.5-0.7-7.2-1-11-1h-39.9v45.3h43.2C163.4,207.1,169.6,205.3,174.6,201.7z"/>
<path class="st1" d="M0,0v455h455V0H0z M275.6,141.8h78.5v19.1h-78.5V141.8z M226.6,291.7c-3.8,7.2-9,13-15.3,17.5
	c-6.4,4.5-13.8,7.9-22,10c-8.2,2.2-16.6,3.3-25.3,3.3H70V128.8h91.4c9.3,0,17.6,0.8,25.3,2.5c7.6,1.6,14.1,4.3,19.6,8
	c5.4,3.7,9.6,8.6,12.6,14.8c3,6.1,4.4,13.7,4.4,22.7c0,9.8-2.2,17.9-6.6,24.4c-4.5,6.5-11,11.8-19.8,16c11.9,3.4,20.8,9.5,26.6,18
	c5.9,8.6,8.8,19,8.8,31.1C232.2,276.1,230.4,284.6,226.6,291.7z M384.8,261.7H283.5c0,11.1,3.8,21.6,9.5,27.2
	c5.8,5.6,14.1,8.5,24.9,8.5c7.8,0,14.5-2,20.1-5.9c5.6-3.9,9-8.1,10.3-12.4h33.9c-5.5,16.9-13.7,28.9-25,36.2
	c-11.2,7.3-24.8,10.9-40.6,10.9c-11.1,0-21-1.8-29.9-5.3c-8.9-3.6-16.4-8.6-22.7-15.1c-6.1-6.5-10.9-14.3-14.2-23.4
	c-3.3-9-5-19.1-5-29.9c0-10.5,1.8-20.3,5.2-29.3c3.5-9.1,8.3-16.9,14.7-23.5c6.4-6.6,13.9-11.8,22.7-15.6c8.8-3.8,18.5-5.7,29.3-5.7
	c11.9,0,22.3,2.3,31.2,6.9c8.9,4.6,16.2,10.8,21.9,18.6c5.7,7.8,9.8,16.7,12.3,26.6C384.6,240.4,385.5,250.8,384.8,261.7z"/>
<path class="st1" d="M315.5,207.4c-6.2,0-11.3,1-15.3,3.1c-4,2.1-7.3,4.7-9.8,7.7c-2.5,3.1-4.2,6.4-5.2,9.9c-1,3.4-1.6,6.5-1.8,9.2
	h62.7c-0.9-9.8-4.3-17.1-8.9-22.2C332.8,210.1,325,207.4,315.5,207.4z"/>
</svg>
