<?xml version="1.0" encoding="utf-8"?>
<!-- Generator: Adobe Illustrator 19.2.1, SVG Export Plug-In . SVG Version: 6.00 Build 0)  -->
<svg version="1.1" id="Capa_1" xmlns="http://www.w3.org/2000/svg" xmlns:xlink="http://www.w3.org/1999/xlink" x="0px" y="0px"
	 viewBox="0 0 508.5 508.5" style="enable-background:new 0 0 508.5 508.5;" xml:space="preserve">
<style type="text/css">
	.st0{fill:#ECECEC;}
	.st1{fill:#333333;}
</style>
<rect x="42" y="42" class="st0" width="424.9" height="424.9"/>
<g>
	<g>
		<g>
			<path class="st1" d="M413.2,0H95.3C42.7,0,0,42.7,0,95.3v317.8c0,52.7,42.7,95.3,95.3,95.3h317.8c52.7,0,95.3-42.7,95.3-95.3
				V95.3C508.5,42.7,465.8,0,413.2,0z M190.7,377.4h-63.6V154.9h63.6L190.7,377.4L190.7,377.4z M160.9,141.3
				c-16.5,0-29.8-13.3-29.8-29.8s13.3-29.8,29.8-29.8c16.5,0,29.8,13.4,29.8,29.8C190.7,128,177.3,141.3,160.9,141.3z M413.2,377.4
				h-63.6V239.9c0-16.1-4.6-27.4-24.4-27.4c-32.8,0-39.2,27.4-39.2,27.4v137.6h-63.6V154.9H286v21.3c9.1-7,31.8-21.2,63.6-21.2
				c20.6,0,63.6,12.3,63.6,86.8V377.4z"/>
		</g>
	</g>
</g>
</svg>
