<svg id="Layer_1" data-name="Layer 1" xmlns="http://www.w3.org/2000/svg" viewBox="0 0 66.31 39.46"><defs><style>.cls-1{fill:#ececec;}</style></defs><title>monogram</title><path class="cls-1" d="M2260.54,11.34c0-1.68,0-3.33.09-4.33h-1.28a11.4,11.4,0,0,1-1.06,3.87,5.51,5.51,0,0,1-2.61,3,11.94,11.94,0,0,1-5.28.92h-4.07l-14.35.16v3.53c3.64-.11,9.08-0.16,16.2-0.16q9,0,12.74.16Q2260.54,14.49,2260.54,11.34Z" transform="translate(-2231.97 21)"/><path class="cls-1" d="M2298.28-21q-3.45.16-11.63,0.16c-7.12,0-51-.05-54.68-0.16v3.14l14.39,0.17h43.05a9.37,9.37,0,0,1,4.39.8,4.46,4.46,0,0,1,2.06,2.57,26.91,26.91,0,0,1,1,5.38h1.28c-0.11-.85-0.27-4-0.27-5.47A63.7,63.7,0,0,1,2298.28-21Z" transform="translate(-2231.97 21)"/><path class="cls-1" d="M2298.28,18.46c-0.25-2.64-.38-5-0.38-7.12,0-1.68,0-3.33.09-4.33h-1.28a8.51,8.51,0,0,1-1.06,3.87,5.77,5.77,0,0,1-2.61,3.08,11.73,11.73,0,0,1-5.28,1H2273l0-10.29V-13.67l-2.5,0c-0.35,0-.61-0.23-1-0.23,0,14.75,0,29.93-.15,31.93h0v0.23a0.18,0.18,0,0,0,0,.11l3.52,0h0c3-.05,7.48-0.08,12.51-0.08C2291.48,18.29,2295.77,18.35,2298.28,18.46Z" transform="translate(-2231.97 21)"/><path class="cls-1" d="M2247,4.58h0s-0.08,0-.08,0c-0.12-.23-0.16-0.23,0,0,0-1.1-.09-2.16-0.09-3.19l0-2.62,0-2.62q0-1.55.07-3.19c-0.12.22,0,.22,0.08,0,0,0,.08,0,0.08,0h0c0,0.28-.23.33-0.08,0.05,0-.65,0-0.92,0-1.92h-1.09V-9.08s0,0,0,0a14.16,14.16,0,0,1-.63,2.6c-0.06.14-.14,0.29-0.22,0.49s-0.13.25-.19,0.38l-0.13.2a8.26,8.26,0,0,1-.92,1.15l-0.3.3a4.56,4.56,0,0,1-.62.39,5.35,5.35,0,0,1-1.11.4,12.08,12.08,0,0,1-2.51.32l-0.39,0h-0.33l-4.27,0c-0.12,0-.25-0.11-0.39-0.11-0.59,0-1.28-.12-1.64-0.12h0a0.28,0.28,0,0,0-.22.11l0,0.11h0v3h0l0-.11a0.27,0.27,0,0,1,.22-0.12h0c0.36,0,1,.11,1.64.1,0.14,0,.27.06,0.39,0.06l4.27,0.06,0.2,0h0.13l0.39,0a12.08,12.08,0,0,1,2.51.33,5.35,5.35,0,0,1,1.11.41,4.56,4.56,0,0,1,.62.39l0.3,0.3a8.27,8.27,0,0,1,.92,1.15L2244.81,3c0.06,0.13.14,0.25,0.19,0.39s0.16,0.36.22,0.5a14.41,14.41,0,0,1,.63,2.62s0,0.23,0,.25V7H2247c0-1,0-1.55,0-2.2C2246.77,4.52,2247,4.3,2247,4.58Z" transform="translate(-2231.97 21)"/></svg>